<svg width="20" height="20" viewBox="0 0 20 20" fill="none" xmlns="http://www.w3.org/2000/svg">
<path d="M9.28032 6.96975C8.98743 6.67686 8.51255 6.67686 8.21966 6.96975C7.92677 7.26264 7.92677 7.73752 8.21966 8.03041L9.28032 6.96975ZM11.25 10.0001L11.7803 10.5304C12.0732 10.2375 12.0732 9.76264 11.7803 9.46975L11.25 10.0001ZM8.21966 11.9698C7.92677 12.2626 7.92677 12.7375 8.21966 13.0304C8.51255 13.3233 8.98743 13.3233 9.28032 13.0304L8.21966 11.9698ZM17.5833 10.0001C17.5833 14.1882 14.1882 17.5834 9.99999 17.5834V19.0834C15.0166 19.0834 19.0833 15.0167 19.0833 10.0001H17.5833ZM9.99999 17.5834C5.81183 17.5834 2.41666 14.1882 2.41666 10.0001H0.916656C0.916656 15.0167 4.9834 19.0834 9.99999 19.0834V17.5834ZM2.41666 10.0001C2.41666 5.81192 5.81183 2.41675 9.99999 2.41675V0.916748C4.9834 0.916748 0.916656 4.98349 0.916656 10.0001H2.41666ZM9.99999 2.41675C14.1882 2.41675 17.5833 5.81192 17.5833 10.0001H19.0833C19.0833 4.98349 15.0166 0.916748 9.99999 0.916748V2.41675ZM8.21966 8.03041L10.7197 10.5304L11.7803 9.46975L9.28032 6.96975L8.21966 8.03041ZM10.7197 9.46975L8.21966 11.9698L9.28032 13.0304L11.7803 10.5304L10.7197 9.46975Z" fill="#2C747E"/>
</svg>
