<svg width="16" height="16" viewBox="0 0 16 16" fill="none" xmlns="http://www.w3.org/2000/svg">
<path d="M10.5303 7.53025C10.8232 7.23736 10.8232 6.76248 10.5303 6.46959C10.2374 6.1767 9.76257 6.1767 9.46968 6.46959L10.5303 7.53025ZM8.00001 8.99992L7.46968 9.53025C7.76257 9.82314 8.23745 9.82314 8.53034 9.53025L8.00001 8.99992ZM6.53034 6.46959C6.23745 6.1767 5.76257 6.1767 5.46968 6.46959C5.17679 6.76248 5.17679 7.23736 5.46968 7.53025L6.53034 6.46959ZM13.9167 7.99992C13.9167 11.2676 11.2677 13.9166 8.00001 13.9166V15.4166C12.0961 15.4166 15.4167 12.096 15.4167 7.99992H13.9167ZM8.00001 13.9166C4.73233 13.9166 2.08334 11.2676 2.08334 7.99992H0.583344C0.583344 12.096 3.9039 15.4166 8.00001 15.4166V13.9166ZM2.08334 7.99992C2.08334 4.73223 4.73233 2.08325 8.00001 2.08325V0.583252C3.9039 0.583252 0.583344 3.90381 0.583344 7.99992H2.08334ZM8.00001 2.08325C11.2677 2.08325 13.9167 4.73223 13.9167 7.99992H15.4167C15.4167 3.90381 12.0961 0.583252 8.00001 0.583252V2.08325ZM9.46968 6.46959L7.46968 8.46959L8.53034 9.53025L10.5303 7.53025L9.46968 6.46959ZM8.53034 8.46959L6.53034 6.46959L5.46968 7.53025L7.46968 9.53025L8.53034 8.46959Z" fill="#1A1B18"/>
</svg>
