<svg width="24" height="24" viewBox="0 0 24 24" fill="none" xmlns="http://www.w3.org/2000/svg">
<path d="M4.01207 15.7618L4.48641 15.9199L4.48641 15.9199L4.01207 15.7618ZM5.70156 10.6933L5.22722 10.5352L5.22722 10.5352L5.70156 10.6933ZM7.75684 7.03231L7.64196 6.54568H7.64196L7.75684 7.03231ZM11.2324 9.38766L10.8788 9.74121L10.8789 9.74121L11.2324 9.38766ZM14.6114 12.7666L14.965 12.4131L14.965 12.4131L14.6114 12.7666ZM16.9667 16.2422L16.4801 16.1273L16.4801 16.1274L16.9667 16.2422ZM13.3057 18.2975L13.4638 18.7719L13.4638 18.7719L13.3057 18.2975ZM8.23724 19.987L8.39535 20.4614L8.39536 20.4614L8.23724 19.987ZM11.7606 18.5038C11.8477 18.7659 12.1307 18.9077 12.3928 18.8206C12.6548 18.7335 12.7967 18.4505 12.7096 18.1884L11.7606 18.5038ZM12.7096 10.922C12.7967 10.66 12.6548 10.3769 12.3928 10.2898C12.1307 10.2027 11.8477 10.3446 11.7606 10.6066L12.7096 10.922ZM7.57818 19.5966C7.64076 19.8656 7.90953 20.0329 8.17849 19.9703C8.44744 19.9077 8.61474 19.639 8.55216 19.37L7.57818 19.5966ZM7.307 14.9343L7.80593 14.9016V14.9016L7.307 14.9343ZM8.55483 7.45372C8.6107 7.18328 8.43676 6.91877 8.16633 6.8629C7.8959 6.80703 7.63138 6.98097 7.57551 7.2514L8.55483 7.45372ZM14.019 9.90805C13.9649 10.1788 14.1405 10.4422 14.4112 10.4964C14.682 10.5506 14.9454 10.375 14.9996 10.1042L14.019 9.90805ZM14.6533 9.28616L15.1436 9.38422L15.1436 9.38416L14.6533 9.28616ZM16.0256 7.73157L15.8675 7.25722L15.8675 7.25723L16.0256 7.73157ZM17.398 6.17699L17.8883 6.27506L17.8883 6.27505L17.398 6.17699ZM18.0323 5.55511C18.0864 5.28433 17.9108 5.02092 17.6401 4.96676C17.3693 4.9126 17.1059 5.0882 17.0517 5.35898L18.0323 5.55511ZM17.8193 12.8203C17.5801 12.6822 17.2743 12.7642 17.1363 13.0033C16.9982 13.2425 17.0802 13.5483 17.3193 13.6863L17.8193 12.8203ZM17.7822 13.3762L18.0322 12.9432L18.0322 12.9432L17.7822 13.3762ZM19.8332 13.1685L20.1649 13.5426L20.1649 13.5426L19.8332 13.1685ZM21.709 12.8723L21.5087 13.3304L21.5088 13.3305L21.709 12.8723ZM21.8003 13.4579C22.0533 13.5685 22.3481 13.453 22.4587 13.2C22.5692 12.9469 22.4538 12.6522 22.2007 12.5416L21.8003 13.4579ZM10.2215 3.03984C10.3655 2.80424 10.2913 2.49648 10.0557 2.35245C9.82008 2.20842 9.51232 2.28265 9.36829 2.51826L10.2215 3.03984ZM9.99951 4.50002L9.64596 4.85357L9.64598 4.85359L9.99951 4.50002ZM10.0974 4.5979L10.4509 4.24433L10.0974 4.5979ZM9.99599 5.95618C9.91608 6.22051 10.0656 6.49957 10.3299 6.57947C10.5942 6.65938 10.8733 6.50988 10.9532 6.24556L9.99599 5.95618ZM12.1571 7.15712L11.8036 6.80354L12.1571 7.15712ZM12.9157 7.15712L13.2693 6.80362L13.2692 6.80354L12.9157 7.15712ZM12.9157 7.91568L13.2692 8.26926L13.2693 8.26917L12.9157 7.91568ZM12.1571 7.91568L11.8036 8.26926L11.8036 8.26926L12.1571 7.91568ZM17.1571 10.1571L16.8036 9.80354L16.8035 9.80356L17.1571 10.1571ZM17.9157 10.1571L18.2693 9.80365L18.2692 9.80354L17.9157 10.1571ZM17.9157 10.9157L18.2692 11.2694L18.2693 11.2692L17.9157 10.9157ZM17.1571 10.9157L16.8035 11.2693L16.8036 11.2694L17.1571 10.9157ZM19.058 15.3134L19.4115 15.6671L19.4116 15.6669L19.058 15.3134ZM19.8165 15.3134L19.4629 15.6669L19.463 15.6671L19.8165 15.3134ZM19.8165 16.0719L19.4629 15.7184L19.4629 15.7184L19.8165 16.0719ZM19.058 16.0719L19.4116 15.7184L19.4116 15.7184L19.058 16.0719ZM19.3618 7.71438L19.7153 8.06794L19.7154 8.06791L19.3618 7.71438ZM19.1725 10.328L18.6871 10.4481C18.7317 10.6282 18.8723 10.7688 19.0524 10.8134L19.1725 10.328ZM21.7861 10.1387L21.4326 9.78515L21.4325 9.78516L21.7861 10.1387ZM21.0005 8.50002L20.5005 8.49869C20.5001 8.63176 20.5529 8.75948 20.6469 8.85357C20.741 8.94767 20.8688 9.00037 21.0018 9.00002L21.0005 8.50002ZM15.1881 3.4175L14.7072 3.28078L14.7072 3.2808L15.1881 3.4175ZM15.1605 3.51461L14.6796 3.37791L14.6795 3.37799L15.1605 3.51461ZM15.1222 3.72697L14.6267 3.79415L14.6269 3.79508L15.1222 3.72697ZM15.2154 3.91569L14.7924 4.1823L14.7927 4.18277L15.2154 3.91569ZM15.2677 3.99846L15.6906 3.7317L15.6904 3.73137L15.2677 3.99846ZM15.5017 4.60917L15.9442 4.84189L15.9444 4.84161L15.5017 4.60917ZM14.8542 4.78519L14.8931 5.28367L14.8931 5.28367L14.8542 4.78519ZM14.7543 4.79298L14.7154 4.29449L14.7154 4.2945L14.7543 4.79298ZM14.542 4.83101L14.7743 5.27374L14.7747 5.27354L14.542 4.83101ZM14.3872 4.98594L14.0012 4.66816L14.0011 4.66824L14.3872 4.98594ZM14.3224 5.06469L14.7084 5.38249L14.7085 5.38239L14.3224 5.06469ZM13.8035 5.50169L13.7357 5.99706L13.7357 5.99707L13.8035 5.50169ZM13.4629 4.94701L12.9939 5.12029V5.12029L13.4629 4.94701ZM13.4288 4.85471L12.9597 5.02778L12.9598 5.02799L13.4288 4.85471ZM13.3358 4.66586L12.9818 5.01898L12.9823 5.01946L13.3358 4.66586ZM13.147 4.57289L13.3203 4.10387L13.3202 4.10385L13.147 4.57289ZM13.0547 4.5388L12.8814 5.00781L12.8815 5.00783L13.0547 4.5388ZM12.5 4.19817L12.0046 4.26576L12.0046 4.2661L12.5 4.19817ZM12.937 3.67934L12.6193 3.29324L12.6192 3.29332L12.937 3.67934ZM13.0158 3.6145L13.3335 4.00059L13.3336 4.00052L13.0158 3.6145ZM13.2087 3.24737L12.7102 3.20842L12.7102 3.20872L13.2087 3.24737ZM13.2165 3.14755L13.715 3.1865L13.715 3.18644L13.2165 3.14755ZM13.3925 2.50003L13.16 2.05739L13.1598 2.05745L13.3925 2.50003ZM14.0033 2.73405L14.2703 2.3113L14.2701 2.31116L14.0033 2.73405ZM14.086 2.78628L13.819 3.20903L13.8192 3.20913L14.086 2.78628ZM14.2747 2.87949L14.2068 3.37485L14.2069 3.37487L14.2747 2.87949ZM14.4871 2.84119L14.6237 3.32216L14.6238 3.32215L14.4871 2.84119ZM14.5842 2.8136L14.4475 2.33263L14.4475 2.33264L14.5842 2.8136ZM15.2477 2.75404L15.6013 2.40054L15.6011 2.40036L15.2477 2.75404ZM4.48641 15.9199L6.1759 10.8514L5.22722 10.5352L3.53773 15.6037L4.48641 15.9199ZM6.1759 10.8514C6.5642 9.68653 6.83859 8.86759 7.12259 8.30734C7.40326 7.75367 7.63338 7.5752 7.87172 7.51893L7.64196 6.54568C6.97406 6.70336 6.55955 7.20637 6.23064 7.8552C5.90507 8.49746 5.60494 9.40205 5.22722 10.5352L6.1759 10.8514ZM7.87172 7.51893C8.11007 7.46267 8.39571 7.51938 8.89436 7.88908C9.39893 8.26318 10.0106 8.87295 10.8788 9.74121L11.586 9.0341C10.7414 8.1895 10.0684 7.51463 9.48993 7.08578C8.90558 6.65254 8.30988 6.38801 7.64196 6.54568L7.87172 7.51893ZM10.8789 9.74121L14.2579 13.1202L14.965 12.4131L11.586 9.0341L10.8789 9.74121ZM14.2578 13.1202C15.1261 13.9885 15.7359 14.6001 16.11 15.1047C16.4797 15.6033 16.5364 15.889 16.4801 16.1273L17.4533 16.3571C17.611 15.6892 17.3465 15.0935 16.9133 14.5091C16.4844 13.9307 15.8095 13.2577 14.965 12.4131L14.2578 13.1202ZM16.4801 16.1274C16.4238 16.3657 16.2454 16.5958 15.6917 16.8764C15.1315 17.1604 14.3125 17.4348 13.1476 17.8232L13.4638 18.7719C14.597 18.3941 15.5016 18.0939 16.1439 17.7684C16.7927 17.4395 17.2957 17.025 17.4533 16.3571L16.4801 16.1274ZM13.1476 17.8232L8.07913 19.5127L8.39536 20.4614L13.4638 18.7719L13.1476 17.8232ZM8.07913 19.5127C6.68028 19.979 5.6851 20.3093 4.94735 20.4405C4.20597 20.5724 3.89697 20.4704 3.7128 20.2863L3.00568 20.9934C3.5514 21.5391 4.29869 21.5716 5.12249 21.4251C5.94991 21.2779 7.02879 20.9169 8.39535 20.4614L8.07913 19.5127ZM3.7128 20.2863C3.52863 20.1021 3.42666 19.7931 3.55854 19.0517C3.68978 18.3139 4.02013 17.3188 4.48641 15.9199L3.53773 15.6037C3.08221 16.9703 2.72119 18.0491 2.574 18.8766C2.42745 19.7004 2.45998 20.4476 3.00568 20.9934L3.7128 20.2863ZM12.2351 18.3461C12.7096 18.1884 12.7096 18.1885 12.7096 18.1885C12.7096 18.1885 12.7096 18.1885 12.7096 18.1885C12.7096 18.1885 12.7096 18.1885 12.7096 18.1884C12.7095 18.1882 12.7094 18.1879 12.7093 18.1875C12.709 18.1867 12.7085 18.1853 12.7079 18.1833C12.7066 18.1795 12.7047 18.1735 12.7021 18.1655C12.6969 18.1495 12.6891 18.1254 12.6791 18.0939C12.6591 18.0309 12.6303 17.9386 12.5957 17.8227C12.5262 17.5908 12.4336 17.2661 12.3412 16.8957C12.1533 16.1435 11.977 15.2455 11.977 14.5552H10.977C10.977 15.3747 11.1797 16.3721 11.3709 17.1379C11.468 17.5266 11.5649 17.8665 11.6376 18.1095C11.674 18.2311 11.7045 18.3287 11.7259 18.3964C11.7367 18.4302 11.7452 18.4566 11.7511 18.4747C11.754 18.4838 11.7563 18.4908 11.7579 18.4957C11.7587 18.4981 11.7594 18.5 11.7598 18.5014C11.76 18.5021 11.7602 18.5026 11.7604 18.503C11.7604 18.5032 11.7605 18.5034 11.7605 18.5035C11.7605 18.5036 11.7606 18.5036 11.7606 18.5037C11.7606 18.5037 11.7606 18.5038 12.2351 18.3461ZM11.977 14.5552C11.977 13.8649 12.1533 12.9669 12.3412 12.2147C12.4336 11.8443 12.5262 11.5196 12.5957 11.2877C12.6303 11.1719 12.6591 11.0795 12.6791 11.0165C12.6891 10.985 12.6969 10.9609 12.7021 10.9449C12.7047 10.9369 12.7066 10.9309 12.7079 10.9271C12.7085 10.9252 12.709 10.9238 12.7093 10.9229C12.7094 10.9225 12.7095 10.9222 12.7096 10.9221C12.7096 10.922 12.7096 10.9219 12.7096 10.9219C12.7096 10.9219 12.7096 10.9219 12.7096 10.9219C12.7096 10.922 12.7096 10.922 12.2351 10.7643C11.7606 10.6066 11.7606 10.6067 11.7606 10.6067C11.7606 10.6068 11.7605 10.6069 11.7605 10.6069C11.7605 10.607 11.7604 10.6072 11.7604 10.6074C11.7602 10.6078 11.76 10.6084 11.7598 10.609C11.7594 10.6104 11.7587 10.6123 11.7579 10.6147C11.7563 10.6196 11.754 10.6266 11.7511 10.6357C11.7452 10.6538 11.7367 10.6802 11.7259 10.714C11.7045 10.7817 11.674 10.8793 11.6376 11.001C11.5649 11.2439 11.468 11.5838 11.3709 11.9725C11.1797 12.7383 10.977 13.7357 10.977 14.5552H11.977ZM8.06517 19.4833C8.55216 19.37 8.55217 19.37 8.55217 19.37C8.55216 19.37 8.55216 19.37 8.55216 19.37C8.55214 19.3699 8.55212 19.3698 8.55209 19.3697C8.55203 19.3694 8.55193 19.369 8.55179 19.3684C8.55151 19.3672 8.55108 19.3654 8.55051 19.3629C8.54936 19.3579 8.54762 19.3503 8.54532 19.3403C8.54073 19.3203 8.53394 19.2904 8.52521 19.2517C8.50775 19.1742 8.48259 19.0611 8.45198 18.9196C8.39074 18.6364 8.30785 18.2402 8.22135 17.7887C8.04725 16.8798 7.86272 15.7677 7.80593 14.9016L6.80807 14.967C6.86912 15.898 7.06368 17.0605 7.2392 17.9768C7.32752 18.4378 7.41207 18.842 7.47458 19.131C7.50584 19.2755 7.53163 19.3914 7.54965 19.4714C7.55866 19.5114 7.56573 19.5425 7.57058 19.5636C7.57301 19.5742 7.57488 19.5823 7.57615 19.5879C7.57679 19.5906 7.57729 19.5928 7.57762 19.5942C7.57779 19.595 7.57793 19.5955 7.57802 19.5959C7.57807 19.5961 7.5781 19.5963 7.57813 19.5964C7.57814 19.5965 7.57816 19.5965 7.57816 19.5966C7.57817 19.5966 7.57818 19.5966 8.06517 19.4833ZM7.80593 14.9016C7.71211 13.4708 7.89517 11.6177 8.10822 10.0994C8.21406 9.34512 8.32597 8.68234 8.4114 8.20833C8.45409 7.97143 8.49012 7.78195 8.5154 7.65207C8.52804 7.58714 8.53798 7.53712 8.54473 7.50355C8.5481 7.48677 8.55067 7.47409 8.55237 7.46572C8.55323 7.46154 8.55386 7.45843 8.55428 7.45642C8.55448 7.45542 8.55463 7.45469 8.55473 7.45423C8.55477 7.45401 8.5548 7.45385 8.55482 7.45377C8.55483 7.45372 8.55483 7.45371 8.55484 7.45369C8.55484 7.45369 8.55483 7.45372 8.06517 7.35256C7.57551 7.2514 7.5755 7.25146 7.57548 7.25153C7.57547 7.25158 7.57545 7.25167 7.57543 7.25177C7.57539 7.25197 7.57534 7.25223 7.57527 7.25256C7.57513 7.25323 7.57494 7.25418 7.57469 7.2554C7.57419 7.25785 7.57346 7.2614 7.57251 7.26604C7.57063 7.2753 7.56787 7.28889 7.56431 7.30661C7.55719 7.34206 7.54685 7.39404 7.53382 7.46103C7.50774 7.59499 7.47085 7.78906 7.42725 8.03097C7.3401 8.51459 7.22596 9.1905 7.11792 9.96047C6.9032 11.4907 6.70719 13.4285 6.80807 14.967L7.80593 14.9016ZM14.9996 10.1042L15.1436 9.38422L14.163 9.18809L14.019 9.90805L14.9996 10.1042ZM15.1436 9.38416C15.2537 8.83328 15.6507 8.38359 16.1837 8.20591L15.8675 7.25723C14.9941 7.54838 14.3435 8.28524 14.163 9.18815L15.1436 9.38416ZM16.1837 8.20591C17.0572 7.91476 17.7077 7.17788 17.8883 6.27506L16.9077 6.07892C16.7975 6.62989 16.4006 7.07955 15.8675 7.25722L16.1837 8.20591ZM17.8883 6.27505L18.0323 5.55511L17.0517 5.35898L16.9077 6.07892L17.8883 6.27505ZM17.3193 13.6863L17.5322 13.8092L18.0322 12.9432L17.8193 12.8203L17.3193 13.6863ZM17.5322 13.8092C18.3757 14.2962 19.4362 14.1888 20.1649 13.5426L19.5015 12.7944C19.0948 13.155 18.5029 13.215 18.0322 12.9432L17.5322 13.8092ZM20.1649 13.5426C20.5332 13.216 21.0576 13.1332 21.5087 13.3304L21.9093 12.4142C21.1012 12.0608 20.1614 12.2092 19.5015 12.7944L20.1649 13.5426ZM21.5088 13.3305L21.8003 13.4579L22.2007 12.5416L21.9092 12.4142L21.5088 13.3305ZM9.36829 2.51826C8.91033 3.26738 9.0251 4.23271 9.64596 4.85357L10.3531 4.14646C10.0589 3.85226 10.0045 3.39483 10.2215 3.03984L9.36829 2.51826ZM9.64598 4.85359L9.74387 4.95147L10.4509 4.24433L10.353 4.14645L9.64598 4.85359ZM9.74387 4.95147C10.0067 5.21426 10.1036 5.60034 9.99599 5.95618L10.9532 6.24556C11.1674 5.53693 10.9745 4.76786 10.4509 4.24433L9.74387 4.95147ZM7.28116 4.29436C7.29537 4.28015 7.3184 4.28015 7.33261 4.29436L8.03971 3.58725C7.63498 3.18252 6.97879 3.18252 6.57406 3.58725L7.28116 4.29436ZM7.33261 4.29436C7.34682 4.30857 7.34682 4.33161 7.33261 4.34581L8.03971 5.05292C8.44445 4.64819 8.44445 3.99199 8.03971 3.58725L7.33261 4.29436ZM7.33261 4.34581C7.3184 4.36002 7.29537 4.36002 7.28116 4.34581L6.57406 5.05292C6.97879 5.45765 7.63498 5.45765 8.03971 5.05292L7.33261 4.34581ZM7.28116 4.34581C7.26696 4.33161 7.26696 4.30857 7.28116 4.29436L6.57406 3.58725C6.16933 3.99199 6.16933 4.64819 6.57406 5.05292L7.28116 4.34581ZM12.5106 7.5107C12.5249 7.49645 12.5479 7.49645 12.5622 7.5107L13.2692 6.80354C12.8645 6.39884 12.2083 6.39884 11.8036 6.80354L12.5106 7.5107ZM12.5621 7.51061C12.5763 7.52483 12.5763 7.54796 12.5621 7.56218L13.2693 8.26917C13.6739 7.86445 13.6739 7.20834 13.2693 6.80362L12.5621 7.51061ZM12.5622 7.56209C12.5479 7.57633 12.5249 7.57633 12.5106 7.56209L11.8036 8.26926C12.2083 8.67394 12.8645 8.67394 13.2692 8.26926L12.5622 7.56209ZM12.5106 7.5621C12.4964 7.5479 12.4964 7.5249 12.5106 7.5107L11.8036 6.80354C11.3988 7.20828 11.3988 7.86452 11.8036 8.26926L12.5106 7.5621ZM17.5106 10.5107C17.5249 10.4965 17.5479 10.4965 17.5622 10.5107L18.2692 9.80354C17.8645 9.39884 17.2083 9.39884 16.8036 9.80354L17.5106 10.5107ZM17.5621 10.5106C17.5763 10.5248 17.5763 10.548 17.5621 10.5622L18.2693 11.2692C18.6739 10.8644 18.6739 10.2084 18.2693 9.80365L17.5621 10.5106ZM17.5622 10.5621C17.548 10.5763 17.5248 10.5763 17.5106 10.5621L16.8036 11.2694C17.2084 11.6739 17.8644 11.6739 18.2692 11.2694L17.5622 10.5621ZM17.5107 10.5622C17.4964 10.5479 17.4964 10.5249 17.5107 10.5107L16.8035 9.80356C16.3988 10.2083 16.3988 10.8645 16.8035 11.2693L17.5107 10.5622ZM19.4116 15.6669C19.4258 15.6528 19.4487 15.6528 19.4629 15.6669L20.1701 14.9599C19.7655 14.5551 19.109 14.5551 18.7044 14.9599L19.4116 15.6669ZM19.463 15.6671C19.4771 15.6811 19.4772 15.7041 19.4629 15.7184L20.1701 16.4255C20.5748 16.0208 20.5749 15.3645 20.17 14.9598L19.463 15.6671ZM19.4629 15.7184C19.4487 15.7326 19.4258 15.7326 19.4116 15.7184L18.7044 16.4254C19.109 16.8303 19.7655 16.8303 20.1701 16.4254L19.4629 15.7184ZM19.4116 15.7184C19.3973 15.7041 19.3974 15.6811 19.4115 15.6671L18.7045 14.9598C18.2996 15.3645 18.2997 16.0208 18.7044 16.4255L19.4116 15.7184ZM19.0083 7.36082C18.7374 7.63169 18.6147 7.99471 18.5572 8.31798C18.4983 8.64868 18.4972 8.99825 18.5168 9.30449C18.5366 9.61373 18.5789 9.89731 18.6157 10.1023C18.6342 10.2054 18.6516 10.2899 18.6646 10.3495C18.6711 10.3793 18.6764 10.4029 18.6803 10.4196C18.6823 10.428 18.6839 10.4346 18.685 10.4394C18.6856 10.4418 18.6861 10.4437 18.6864 10.4452C18.6866 10.4459 18.6867 10.4465 18.6869 10.447C18.6869 10.4473 18.687 10.4475 18.687 10.4477C18.6871 10.4478 18.6871 10.4479 18.6871 10.4479C18.6871 10.448 18.6871 10.4481 19.1725 10.328C19.6579 10.2079 19.6579 10.208 19.6579 10.2081C19.6579 10.2081 19.6579 10.2082 19.6579 10.2082C19.6579 10.2083 19.658 10.2083 19.658 10.2083C19.658 10.2083 19.6579 10.2082 19.6579 10.208C19.6578 10.2076 19.6576 10.2068 19.6573 10.2055C19.6566 10.2028 19.6556 10.1985 19.6542 10.1924C19.6514 10.1803 19.6471 10.1616 19.6417 10.1369C19.631 10.0876 19.616 10.0151 19.5999 9.92546C19.5675 9.74515 19.5314 9.50099 19.5148 9.24061C19.4979 8.97723 19.5022 8.71527 19.5417 8.49308C19.5826 8.26346 19.6511 8.1322 19.7153 8.06794L19.0083 7.36082ZM19.1725 10.328C19.0524 10.8134 19.0525 10.8134 19.0526 10.8134C19.0526 10.8134 19.0527 10.8135 19.0528 10.8135C19.053 10.8135 19.0532 10.8136 19.0535 10.8136C19.054 10.8138 19.0546 10.8139 19.0553 10.8141C19.0568 10.8145 19.0587 10.8149 19.0611 10.8155C19.0659 10.8167 19.0725 10.8182 19.0809 10.8202C19.0976 10.8241 19.1212 10.8295 19.151 10.836C19.2106 10.8489 19.2951 10.8663 19.3982 10.8848C19.6032 10.9217 19.8868 10.9639 20.196 10.9837C20.5022 11.0033 20.8518 11.0022 21.1825 10.9434C21.5058 10.8859 21.8688 10.7632 22.1397 10.4923L21.4325 9.78516C21.3683 9.84943 21.237 9.91796 21.0074 9.9588C20.7852 9.99832 20.5233 10.0026 20.2599 9.98575C19.9995 9.96908 19.7554 9.93298 19.575 9.90058C19.4854 9.88448 19.4129 9.86953 19.3636 9.8588C19.339 9.85344 19.3202 9.84916 19.3081 9.84634C19.3021 9.84492 19.2977 9.84388 19.2951 9.84325C19.2938 9.84294 19.2929 9.84273 19.2925 9.84263C19.2923 9.84258 19.2922 9.84255 19.2922 9.84256C19.2922 9.84256 19.2923 9.84257 19.2923 9.84259C19.2924 9.8426 19.2924 9.84262 19.2925 9.84262C19.2925 9.84264 19.2926 9.84266 19.1725 10.328ZM22.1396 10.4923C22.6068 10.0252 22.7795 9.39631 22.5236 8.84241C22.2713 8.29619 21.6832 7.99819 20.9992 8.00002L21.0018 9.00002C21.4116 8.99892 21.5712 9.16535 21.6158 9.26174C21.6567 9.35045 21.6753 9.54242 21.4326 9.78515L22.1396 10.4923ZM21.5005 8.50134C21.5023 7.81729 21.2043 7.22918 20.6581 6.97688C20.1042 6.72103 19.4753 6.89368 19.0082 7.36085L19.7154 8.06791C19.9581 7.82518 20.15 7.84373 20.2387 7.88471C20.3351 7.92924 20.5016 8.08889 20.5005 8.49869L21.5005 8.50134ZM14.7072 3.2808L14.6796 3.37791L15.6415 3.6513L15.6691 3.55419L14.7072 3.2808ZM14.6795 3.37799C14.6613 3.44225 14.6023 3.61406 14.6267 3.79415L15.6177 3.65978C15.6191 3.6707 15.62 3.68139 15.6203 3.69166C15.6206 3.70188 15.6204 3.71087 15.6199 3.71837C15.619 3.73291 15.6172 3.74117 15.6175 3.73968C15.6176 3.73908 15.6181 3.73686 15.6192 3.73248C15.6202 3.72809 15.6217 3.7223 15.6238 3.71456C15.6258 3.70682 15.6283 3.69788 15.6313 3.68716C15.6343 3.67637 15.6376 3.66473 15.6415 3.65123L14.6795 3.37799ZM14.6269 3.79508C14.6522 3.97933 14.7587 4.12885 14.7924 4.1823L15.6384 3.64908C15.6311 3.63752 15.6249 3.62766 15.6192 3.6185C15.6135 3.6094 15.6088 3.60191 15.6049 3.59545C15.601 3.589 15.5982 3.58431 15.5962 3.58087C15.5943 3.57745 15.5935 3.57597 15.5935 3.576C15.5936 3.57606 15.5947 3.57821 15.5964 3.58207C15.5981 3.586 15.6006 3.59191 15.6033 3.59953C15.606 3.60723 15.6088 3.61634 15.6114 3.62668C15.6139 3.63708 15.616 3.64786 15.6175 3.65885L14.6269 3.79508ZM14.7927 4.18277L14.845 4.26554L15.6904 3.73137L15.6381 3.6486L14.7927 4.18277ZM14.8448 4.26521C14.8964 4.34696 14.9364 4.41055 14.9689 4.46538C15.0019 4.52094 15.019 4.55419 15.0276 4.574C15.0366 4.59488 15.0269 4.57997 15.024 4.54186C15.0203 4.49395 15.0292 4.43357 15.059 4.37673L15.9444 4.84161C16.0834 4.57678 16.0096 4.32476 15.9447 4.17544C15.8839 4.03539 15.7822 3.87694 15.6906 3.7317L14.8448 4.26521ZM15.0592 4.37645C15.0888 4.32007 15.1319 4.28088 15.1684 4.25893C15.1973 4.24162 15.211 4.24169 15.186 4.24738C15.1621 4.2528 15.1226 4.25915 15.0563 4.26609C14.9909 4.27295 14.9137 4.27902 14.8153 4.28671L14.8931 5.28367C15.0696 5.26989 15.2584 5.25645 15.4077 5.2225C15.5633 5.18712 15.8077 5.10162 15.9442 4.84189L15.0592 4.37645ZM14.8153 4.2867L14.7154 4.29449L14.7932 5.29146L14.8931 5.28367L14.8153 4.2867ZM14.7154 4.2945C14.6472 4.29982 14.4693 4.3043 14.3093 4.38847L14.7747 5.27354C14.7658 5.27825 14.7567 5.28244 14.7477 5.28607C14.7388 5.28969 14.7306 5.29245 14.7237 5.29454C14.7101 5.29861 14.702 5.2998 14.7032 5.2996C14.705 5.29932 14.7119 5.29835 14.7283 5.2968C14.7362 5.29606 14.7453 5.29528 14.7563 5.29438C14.7674 5.29348 14.7793 5.29255 14.7932 5.29146L14.7154 4.2945ZM14.3097 4.38827C14.1513 4.47138 14.0457 4.61403 14.0012 4.66816L14.7732 5.30372C14.7917 5.28126 14.8047 5.2655 14.8159 5.25235C14.8269 5.2393 14.8321 5.23372 14.8339 5.23189C14.8353 5.2304 14.8302 5.23593 14.8197 5.24431C14.8083 5.25343 14.793 5.26397 14.7743 5.27374L14.3097 4.38827ZM14.0011 4.66824L13.9363 4.74699L14.7085 5.38239L14.7733 5.30364L14.0011 4.66824ZM13.9364 4.74688C13.8725 4.82447 13.8221 4.88563 13.7779 4.93657C13.7332 4.98813 13.7043 5.0182 13.6852 5.03571C13.6648 5.05433 13.672 5.04327 13.7026 5.02934C13.7418 5.01151 13.8022 4.99685 13.8713 5.0063L13.7357 5.99707C14.0329 6.03774 14.2464 5.87761 14.3601 5.77362C14.4731 5.67025 14.5934 5.52222 14.7084 5.38249L13.9364 4.74688ZM13.8713 5.00631C13.9415 5.01592 14.0005 5.04766 14.0397 5.08233C14.0707 5.10969 14.0775 5.12847 14.0663 5.10831C14.0559 5.08958 14.0399 5.0557 14.0157 4.99533C13.9918 4.93583 13.9656 4.86486 13.9319 4.77373L12.9939 5.12029C13.0537 5.28219 13.1179 5.46002 13.1918 5.59327C13.2689 5.73233 13.4283 5.95497 13.7357 5.99706L13.8713 5.00631ZM13.9319 4.77373L13.8978 4.68143L12.9598 5.02799L12.9939 5.12029L13.9319 4.77373ZM13.8979 4.68164C13.8762 4.62294 13.8218 4.4447 13.6893 4.31226L12.9823 5.01946C12.974 5.01116 12.9663 5.00257 12.9593 4.99389C12.9524 4.98525 12.9466 4.97719 12.9421 4.97016C12.9375 4.9632 12.9342 4.95751 12.9321 4.95365C12.9301 4.94985 12.929 4.9476 12.929 4.94753C12.929 4.94748 12.9297 4.94899 12.9312 4.95265C12.9327 4.95632 12.9348 4.96139 12.9375 4.96845C12.9403 4.97551 12.9434 4.98377 12.9471 4.99384C12.9509 5.00397 12.955 5.01496 12.9597 5.02778L13.8979 4.68164ZM13.6898 4.31274C13.5572 4.17985 13.3781 4.12522 13.3203 4.10387L12.9737 5.04191C12.9866 5.04666 12.9976 5.05073 13.0078 5.05453C13.0179 5.0583 13.0262 5.06145 13.0333 5.0642C13.0404 5.06695 13.0455 5.069 13.0492 5.07054C13.0529 5.07208 13.0544 5.07279 13.0543 5.07277C13.0543 5.07274 13.052 5.07169 13.0482 5.06961C13.0443 5.06751 13.0386 5.06422 13.0316 5.05963C13.0245 5.055 13.0164 5.04923 13.0076 5.0422C12.9989 5.03514 12.9902 5.02738 12.9818 5.01898L13.6898 4.31274ZM13.3202 4.10385L13.2279 4.06977L12.8815 5.00783L12.9738 5.04192L13.3202 4.10385ZM13.228 4.06979C13.1369 4.03612 13.0659 4.00986 13.0064 3.986C12.946 3.96179 12.9122 3.94578 12.8934 3.93539C12.8733 3.92421 12.892 3.93104 12.9194 3.96196C12.954 4.00115 12.9857 4.0601 12.9954 4.13024L12.0046 4.2661C12.0468 4.57345 12.2694 4.7328 12.4085 4.80992C12.5417 4.88382 12.7195 4.94799 12.8814 5.00781L13.228 4.06979ZM12.9954 4.13058C13.0048 4.19967 12.9902 4.25998 12.9723 4.29913C12.9584 4.32972 12.9474 4.33693 12.966 4.31657C12.9835 4.29742 13.0136 4.26848 13.0651 4.22378C13.1161 4.17962 13.1772 4.12922 13.2548 4.06535L12.6192 3.29332C12.4794 3.4084 12.3314 3.52867 12.2281 3.64169C12.1241 3.75535 11.9641 3.9687 12.0046 4.26576L12.9954 4.13058ZM13.2547 4.06543L13.3335 4.00059L12.6981 3.2284L12.6193 3.29324L13.2547 4.06543ZM13.3336 4.00052C13.3879 3.95577 13.5302 3.85042 13.6133 3.69244L12.7281 3.22707C12.7379 3.20853 12.7484 3.19331 12.7575 3.18194C12.7658 3.1715 12.7713 3.16641 12.7698 3.16785C12.768 3.16962 12.7624 3.17479 12.7493 3.18586C12.7362 3.19702 12.7205 3.21001 12.698 3.22848L13.3336 4.00052ZM13.6133 3.69244C13.6975 3.5323 13.7019 3.35457 13.7072 3.28601L12.7102 3.20872C12.7091 3.2226 12.7082 3.23454 12.7073 3.24558C12.7064 3.25656 12.7056 3.26567 12.7049 3.27352C12.7034 3.28996 12.7024 3.29677 12.7021 3.29853C12.7019 3.29977 12.7031 3.29158 12.7072 3.27803C12.7093 3.27108 12.712 3.26297 12.7156 3.25403C12.7193 3.24505 12.7234 3.23601 12.7281 3.22707L13.6133 3.69244ZM13.7072 3.28632L13.715 3.1865L12.718 3.1086L12.7102 3.20842L13.7072 3.28632ZM13.715 3.18644C13.7227 3.088 13.7287 3.01082 13.7356 2.94537C13.7425 2.87913 13.7489 2.83957 13.7543 2.81574C13.76 2.79072 13.7601 2.80445 13.7427 2.83328C13.7208 2.86986 13.6816 2.91294 13.6252 2.9426L13.1598 2.05745C12.9001 2.19402 12.8146 2.43847 12.7792 2.59402C12.7452 2.74338 12.7318 2.93217 12.718 3.10866L13.715 3.18644ZM13.625 2.94266C13.5683 2.97249 13.5079 2.98141 13.4599 2.97773C13.4218 2.9748 13.4068 2.96505 13.4277 2.97412C13.4475 2.98272 13.4807 2.99982 13.5363 3.03276C13.5912 3.06527 13.6548 3.10535 13.7365 3.15694L14.2701 2.31116C14.1248 2.21954 13.9663 2.11786 13.8263 2.05699C13.6769 1.99204 13.4248 1.91825 13.16 2.05739L13.625 2.94266ZM13.7363 3.1568L13.819 3.20903L14.353 2.36353L14.2703 2.3113L13.7363 3.1568ZM13.8192 3.20913C13.8729 3.24304 14.0224 3.34958 14.2068 3.37485L14.3426 2.38412C14.3536 2.38563 14.3644 2.38771 14.3748 2.39028C14.3852 2.39283 14.3943 2.39565 14.402 2.39836C14.4097 2.40105 14.4156 2.40352 14.4195 2.40528C14.4234 2.40701 14.4256 2.40814 14.4257 2.40818C14.4257 2.4082 14.4242 2.40744 14.4208 2.40548C14.4174 2.40352 14.4127 2.40076 14.4063 2.39685C14.3999 2.39294 14.3924 2.38831 14.3833 2.38263C14.3742 2.37692 14.3644 2.3707 14.3528 2.36343L13.8192 3.20913ZM14.2069 3.37487C14.3875 3.39959 14.56 3.34026 14.6237 3.32216L14.3505 2.36022C14.3369 2.36406 14.3253 2.36737 14.3145 2.3704C14.3037 2.37342 14.2948 2.37589 14.287 2.37796C14.2793 2.38004 14.2735 2.38151 14.2691 2.38258C14.2647 2.38364 14.2625 2.3841 14.2619 2.38422C14.2604 2.38451 14.2688 2.38271 14.2835 2.38179C14.291 2.38131 14.3001 2.38107 14.3104 2.3814C14.3207 2.38173 14.3315 2.3826 14.3425 2.3841L14.2069 3.37487ZM14.6238 3.32215L14.7209 3.29456L14.4475 2.33264L14.3504 2.36023L14.6238 3.32215ZM14.7209 3.29456C14.8166 3.26735 14.8919 3.24601 14.9562 3.22953C15.0214 3.21283 15.0608 3.205 15.0848 3.20182C15.1106 3.19839 15.0946 3.20386 15.0571 3.19642C15.0091 3.18689 14.9469 3.16034 14.8943 3.10771L15.6011 2.40036C15.3814 2.18077 15.1051 2.19037 14.9533 2.2105C14.802 2.23056 14.6191 2.28388 14.4475 2.33263L14.7209 3.29456ZM14.8941 3.10754C14.8414 3.05482 14.8148 2.99257 14.8053 2.94457C14.7979 2.90708 14.8033 2.89105 14.7999 2.91693C14.7967 2.94088 14.7889 2.98032 14.7722 3.04551C14.7557 3.10981 14.7344 3.18506 14.7072 3.28078L15.669 3.55421C15.7178 3.3826 15.7712 3.19971 15.7912 3.04842C15.8113 2.89674 15.821 2.6203 15.6013 2.40054L14.8941 3.10754Z" fill="#1A1B18"/>
</svg>
